<svg width="23" height="23" viewBox="0 0 23 23" fill="none" xmlns="http://www.w3.org/2000/svg">
<path d="M20.1707 8.41927C20.113 8.24946 20.0069 8.10025 19.8654 7.99006C19.724 7.87987 19.5533 7.81353 19.3745 7.79922L14.1454 7.38371L11.8826 2.3747C11.8105 2.21337 11.6933 2.07634 11.5451 1.98016C11.3968 1.88397 11.224 1.83274 11.0473 1.83264C10.8706 1.83254 10.6976 1.88359 10.5493 1.97961C10.401 2.07563 10.2836 2.21253 10.2114 2.37378L7.94855 7.38371L2.7194 7.79922C2.54371 7.81314 2.37575 7.87738 2.23561 7.98425C2.09547 8.09113 1.98909 8.23612 1.9292 8.40187C1.8693 8.56762 1.85843 8.74712 1.89787 8.91889C1.93732 9.09066 2.02542 9.24743 2.15163 9.37044L6.01594 13.1375L4.64926 19.0555C4.60776 19.2347 4.62106 19.4221 4.68744 19.5936C4.75381 19.7651 4.87019 19.9127 5.02148 20.0172C5.17276 20.1217 5.35197 20.1783 5.53584 20.1797C5.71972 20.1811 5.89977 20.1272 6.05263 20.025L11.047 16.6955L16.0413 20.025C16.1975 20.1288 16.3818 20.1822 16.5693 20.1781C16.7568 20.1739 16.9385 20.1125 17.0901 20.002C17.2416 19.8916 17.3557 19.7373 17.4169 19.5601C17.4782 19.3828 17.4837 19.1911 17.4328 19.0106L15.7551 13.1403L19.9157 9.39612C20.1881 9.15031 20.2881 8.7669 20.1707 8.41927V8.41927Z" fill="#F3CD03"/>
</svg>
